<?xml version="1.0" encoding="utf-8"?>
<!-- Generator: Adobe Illustrator 16.1.0, SVG Export Plug-In . SVG Version: 6.00 Build 0)  -->
<!DOCTYPE svg PUBLIC "-//W3C//DTD SVG 1.1//EN" "http://www.w3.org/Graphics/SVG/1.1/DTD/svg11.dtd">
<svg version="1.1" id="Layer_1" xmlns="http://www.w3.org/2000/svg" xmlns:xlink="http://www.w3.org/1999/xlink" x="0px" y="0px"
	 width="512px" height="512px" viewBox="0 0 512 512" enable-background="new 0 0 512 512" xml:space="preserve">
<path fill="#4cae4c" d="M256,0C114.595,0,0,114.595,0,256c0,141.376,114.595,256,256,256c141.376,0,256-114.624,256-256
	C512,114.595,397.376,0,256,0z M376.032,318.938c-11.658,13.283-31.907,14.596-45.158,2.905l-74.967-65.811l-74.595,66.313
	c-13.187,11.75-33.437,10.56-45.187-2.627c-11.783-13.248-10.592-33.498,2.624-45.248l95.718-85.127
	c1.095-0.998,2.471-1.312,3.626-2.125c1.907-1.28,3.718-2.531,5.782-3.376c1.812-0.685,3.594-1.03,5.438-1.437
	c2.188-0.438,4.281-0.874,6.498-0.841c1.876,0,3.69,0.375,5.565,0.717c2.125,0.375,4.218,0.752,6.281,1.593
	c1.876,0.752,3.469,1.907,5.217,3.002c1.314,0.841,2.812,1.248,4,2.31l96.252,84.532
	C386.406,285.408,387.719,305.626,376.032,318.938z"/>
</svg>
