<?xml version="1.0" encoding="utf-8"?>
<!-- Generator: Adobe Illustrator 16.1.0, SVG Export Plug-In . SVG Version: 6.00 Build 0)  -->
<!DOCTYPE svg PUBLIC "-//W3C//DTD SVG 1.1//EN" "http://www.w3.org/Graphics/SVG/1.1/DTD/svg11.dtd">
<svg version="1.1" id="Layer_1" xmlns="http://www.w3.org/2000/svg" xmlns:xlink="http://www.w3.org/1999/xlink" x="0px" y="0px"
	 width="512px" height="512px" viewBox="0 0 512 512" enable-background="new 0 0 512 512" xml:space="preserve">
<path fill="#4cae4c" d="M256,512c141.405,0,256-114.596,256-256C512,114.624,397.404,0,256,0C114.624,0,0,114.624,0,256
	C0,397.405,114.624,512,256,512z M135.968,193.062c11.658-13.283,31.907-14.596,45.158-2.905l74.967,65.811l74.595-66.313
	c13.188-11.75,33.438-10.56,45.188,2.627c11.783,13.248,10.593,33.498-2.624,45.248l-95.718,85.127
	c-1.095,0.998-2.471,1.312-3.626,2.125c-1.907,1.279-3.718,2.531-5.782,3.376c-1.812,0.685-3.594,1.03-5.438,1.437
	c-2.188,0.438-4.281,0.874-6.498,0.842c-1.876,0-3.69-0.375-5.565-0.717c-2.125-0.375-4.218-0.752-6.281-1.594
	c-1.876-0.752-3.469-1.907-5.217-3.002c-1.314-0.841-2.812-1.248-4-2.31l-96.252-84.532
	C125.594,226.592,124.281,206.374,135.968,193.062z" />
</svg>
