<svg width="512" height="512" xmlns="http://www.w3.org/2000/svg" viewBox="0 0 512 512" enable-background="new 0 0 512 512" >
 <g>
  <title>lock</title>
   <path fill="#DA4453" id="lock" d="m357,226.5l0,-76.5c0,-56.22909 -45.74541,-102 -102,-102c-56.24184,0 -102,45.77091 -102,102l0,76.5c-28.16475,0 -51,22.83525 -51,51l0,127.5c0,28.16475 22.83525,51 51,51l204,0c28.16475,0 51,-22.83525 51,-51l0,-127.5c0,-28.16475 -22.83525,-51 -51,-51zm-89.25,123.59053l0,42.15947c0,7.04756 -5.70244,12.75 -12.75,12.75s-12.75,-5.70244 -12.75,-12.75l0,-42.15947c-7.48345,-4.43302 -12.75,-12.25195 -12.75,-21.59053c0,-14.09512 11.41763,-25.5 25.5,-25.5s25.5,11.40567 25.5,25.5c0,9.33858 -5.26655,17.15752 -12.75,21.59053zm38.25,-123.59053l-102,0l0,-76.5c0,-28.14005 22.8727,-51 51,-51c28.11455,0 51,22.86075 51,51l0,76.5z"/>
 </g>
</svg>