<svg width="512" height="512" xmlns="http://www.w3.org/2000/svg" viewBox="0 0 512 512" enable-background="new 0 0 512 512" >
 <g>
  <title>unlock</title>
  <path fill="#E9573F" id="unlock" d="m393.37499,232.1875l-44.625,0l-89.25,0l0,-66.9375c0,-49.20046 -40.02723,-89.25 -89.25,-89.25c-49.21161,0 -89.25,40.04954 -89.25,89.25l0,66.9375l44.625,0l0,-66.9375c0,-24.62254 20.01361,-44.625 44.625,-44.625c24.60023,0 44.625,20.00316 44.625,44.625l0,66.9375c-24.64416,0 -44.625,19.98084 -44.625,44.625l0,111.5625c0,24.64416 19.98084,44.625 44.625,44.625l178.5,0c24.64416,0 44.625,-19.98084 44.625,-44.625l0,-111.5625c0,-24.64416 -19.98084,-44.625 -44.625,-44.625zm-78.09375,108.14171l0,36.88953c0,6.16662 -4.98963,11.15625 -11.15625,11.15625s-11.15625,-4.98963 -11.15625,-11.15625l0,-36.88953c-6.53687,-3.87889 -11.15625,-10.72046 -11.15625,-18.89171c0,-12.33323 9.97996,-22.3125 22.3125,-22.3125s22.3125,9.97996 22.3125,22.3125c0,8.17126 -4.61938,15.01283 -11.15625,18.89171z"/>
 </g>
</svg>